<?xml version="1.0" encoding="UTF-8"?>
<svg width="51px" height="35px" viewBox="0 0 51 35" version="1.1" xmlns="http://www.w3.org/2000/svg" xmlns:xlink="http://www.w3.org/1999/xlink">
    <!-- Generator: Sketch 48.2 (47327) - http://www.bohemiancoding.com/sketch -->
    <title>Logo Testnet</title>
    <desc>Created with Sketch.</desc>
    <defs></defs>
    <g id="Revised-Nav-Sizes-Copy" stroke="none" stroke-width="1" fill="none" fill-rule="evenodd" transform="translate(-25.000000, -22.000000)">
        <g id="Logo-Testnet" transform="translate(25.000000, 22.000000)">
            <path d="M1.37758782e-09,34.253795 L-2.17514368e-07,1.51120002 C-2.17514368e-07,1.22887205 0.228871828,1 0.511199803,1 C0.511199876,1 0.511199949,1 0.511200022,1 L6.63869755,0.999969844 C6.92101986,0.999969965 7.14989668,1.2288196 7.14993034,1.51114191 C7.15026834,4.34601874 7.15350037,5.76345716 7.15962642,5.76345716 C7.20452521,7.5911405 7.24942399,9.41882385 7.29432277,11.2465072 L7.29432277,11.2465072 C7.30567852,11.7087629 7.68367068,12.0775833 8.14606584,12.0775833 C10.2041649,12.0775833 12.2622639,12.0775833 14.3203629,12.0775833 C19.3273236,12.0775833 22.1089684,15.2252062 22.1089684,20.4780574 L22.1089684,34.253795 C22.1089684,34.536123 21.8800963,34.764995 21.5977684,34.764995 L15.3260776,34.764995 C15.0437496,34.764995 14.8148775,34.536123 14.8148775,34.253795 L14.8148775,22.0518688 C14.8148775,19.5378584 13.5579862,17.984486 11.1472273,17.984486 C8.69525896,17.984486 7.31473895,19.7218103 7.31473895,22.2153817 L7.31473895,34.253795 C7.31473895,34.536123 7.0858669,34.764995 6.80353893,34.764995 L0.511200022,34.764995 C0.228872047,34.764995 1.37367812e-09,34.536123 1.36885514e-09,34.253795 Z" id="h" fill="#EFEFF4"></path>
            <path d="M27.5962734,17.5728643 L34.0566246,17.5728695 C34.153782,17.5728696 34.2463203,17.6143376 34.310983,17.6868517 L37.7856271,21.5833941 C37.9108952,21.7238725 38.1263252,21.7362029 38.2668036,21.6109348 C38.2760138,21.6027218 38.2847711,21.5940147 38.2930369,21.5848518 L41.8107074,17.6853941 C41.8753286,17.6137593 41.9672835,17.5728697 42.0637586,17.5728697 L48.6107492,17.5728697 C48.8930772,17.5728697 49.1219492,17.8017417 49.1219492,18.0840697 C49.1219492,18.2094624 49.0758621,18.3304814 48.9924534,18.4241099 L41.9129727,26.3710139 C41.9124674,26.3715811 41.9119603,26.3721465 41.9114513,26.3727103 L34.310839,34.790599 C34.2462213,34.8621648 34.1543122,34.9030092 34.0578906,34.9030091 L27.2350019,34.9030036 C27.0467833,34.9030035 26.894202,34.750422 26.8942022,34.5622033 C26.8942022,34.4775117 26.9257366,34.3958542 26.9826596,34.333145 L33.9022376,26.7101869 C34.0771338,26.5175123 34.0793865,26.2242035 33.9074703,26.0288653 L27.2125263,18.4217979 C27.0260012,18.2098605 27.046602,17.8868428 27.2585394,17.7003177 C27.3518722,17.6181759 27.471942,17.5728642 27.5962734,17.5728643 Z" id="Rectangle-Copy-18" fill="#EFEFF4"></path>
            <path d="M49.8360113,31.3668941 L46.8596393,34.7199638 C46.7949624,34.7928264 46.7021935,34.8345242 46.6047662,34.8345242 L39.6631885,34.8345242 C39.4749699,34.8345242 39.3223885,34.6819428 39.3223885,34.4937242 C39.3223885,34.4069579 39.355483,34.3234586 39.4149242,34.2602515 L46.0118348,27.2453948 C46.1407782,27.1082822 46.3564592,27.1016598 46.4935718,27.2306032 C46.5001479,27.2367875 46.5064757,27.2432306 46.5125402,27.2499174 L49.8335793,30.9117043 C49.9504552,31.0405721 49.9515036,31.2367848 49.8360113,31.3668941 Z" id="Rectangle-Copy-19" fill="#EFEFF4" transform="translate(44.621753, 30.987244) scale(-1, 1) translate(-44.621753, -30.987244) "></path>
            <path d="M21.76,1.775 L19.515,1.775 L19.515,8 L18.35,8 L18.35,1.775 L16.1,1.775 L16.1,0.8 L21.76,0.8 L21.76,1.775 Z M25.095,4.875 C25.095,4.6949991 25.0691669,4.52750078 25.0175,4.3725 C24.965833,4.21749923 24.8900005,4.08250058 24.79,3.9675 C24.6899995,3.85249943 24.565834,3.76250033 24.4175,3.6975 C24.2691659,3.63249968 24.0983343,3.6 23.905,3.6 C23.514998,3.6 23.2083344,3.71166555 22.985,3.935 C22.7616655,4.15833445 22.6200003,4.47166465 22.56,4.875 L25.095,4.875 Z M22.53,5.535 C22.5433334,5.82500145 22.5883329,6.07583228 22.665,6.2875 C22.741667,6.49916773 22.844166,6.6749993 22.9725,6.815 C23.1008339,6.9550007 23.2541657,7.05916633 23.4325,7.1275 C23.6108342,7.19583368 23.8099989,7.23 24.03,7.23 C24.240001,7.23 24.4216659,7.20583358 24.575,7.1575 C24.7283341,7.10916643 24.8616661,7.05583363 24.975,6.9975 C25.0883339,6.93916638 25.1849996,6.88583358 25.265,6.8375 C25.3450004,6.78916643 25.418333,6.765 25.485,6.765 C25.5716671,6.765 25.6383331,6.798333 25.685,6.865 L25.99,7.26 C25.8633327,7.41000075 25.7200008,7.53666615 25.56,7.64 C25.3999992,7.74333385 25.2300009,7.82749968 25.05,7.8925 C24.8699991,7.95750033 24.6850009,8.00416653 24.495,8.0325 C24.304999,8.06083348 24.1200009,8.075 23.94,8.075 C23.5866649,8.075 23.2591681,8.01583393 22.9575,7.8975 C22.6558318,7.77916608 22.3941677,7.60500115 22.1725,7.375 C21.9508322,7.14499885 21.7775006,6.8600017 21.6525,6.52 C21.5274993,6.1799983 21.465,5.78833555 21.465,5.345 C21.465,4.9916649 21.5208327,4.6616682 21.6325,4.355 C21.7441672,4.0483318 21.9041656,3.7816678 22.1125,3.555 C22.3208343,3.3283322 22.5741651,3.14916733 22.8725,3.0175 C23.1708348,2.88583268 23.5083314,2.82 23.885,2.82 C24.1983349,2.82 24.488332,2.87083283 24.755,2.9725 C25.021668,3.07416718 25.2516657,3.22333235 25.445,3.42 C25.6383343,3.61666765 25.7891661,3.85749858 25.8975,4.1425 C26.0058338,4.42750143 26.06,4.75166485 26.06,5.115 C26.06,5.2816675 26.0416668,5.39333305 26.005,5.45 C25.9683331,5.50666695 25.9016671,5.535 25.805,5.535 L22.53,5.535 Z M30.505,3.825 C30.4783332,3.8716669 30.4483335,3.9049999 30.415,3.925 C30.3816665,3.9450001 30.3400002,3.955 30.29,3.955 C30.233333,3.955 30.171667,3.93750018 30.105,3.9025 C30.038333,3.86749983 29.9600004,3.82833355 29.87,3.785 C29.7799995,3.74166645 29.6741673,3.70250018 29.5525,3.6675 C29.4308327,3.63249983 29.2883341,3.615 29.125,3.615 C28.991666,3.615 28.8708339,3.63083318 28.7625,3.6625 C28.6541661,3.69416683 28.5625004,3.73916638 28.4875,3.7975 C28.4124996,3.85583363 28.3550002,3.92416628 28.315,4.0025 C28.2749998,4.08083373 28.255,4.16499955 28.255,4.255 C28.255,4.3750006 28.2916663,4.4749996 28.365,4.555 C28.4383337,4.6350004 28.5349994,4.70416638 28.655,4.7625 C28.7750006,4.82083363 28.9116659,4.8733331 29.065,4.92 C29.2183341,4.9666669 29.3749992,5.0166664 29.535,5.07 C29.6950008,5.1233336 29.8516659,5.18499965 30.005,5.255 C30.1583341,5.32500035 30.2949994,5.41083283 30.415,5.5125 C30.5350006,5.61416718 30.6316663,5.73749928 30.705,5.8825 C30.7783337,6.02750073 30.815,6.2033323 30.815,6.41 C30.815,6.6500012 30.7716671,6.87166565 30.685,7.075 C30.5983329,7.27833435 30.4716675,7.45499925 30.305,7.605 C30.1383325,7.75500075 29.9308346,7.87166625 29.6825,7.955 C29.4341654,8.03833375 29.1500016,8.08 28.83,8.08 C28.6533324,8.08 28.4825008,8.06416683 28.3175,8.0325 C28.1524992,8.00083318 27.9958341,7.95750028 27.8475,7.9025 C27.6991659,7.84749973 27.560834,7.78166705 27.4325,7.705 C27.304166,7.62833295 27.1900005,7.54500045 27.09,7.455 L27.34,7.045 C27.3700001,6.99499975 27.4074998,6.95583348 27.4525,6.9275 C27.4975002,6.89916653 27.553333,6.885 27.62,6.885 C27.6900003,6.885 27.7591663,6.90749978 27.8275,6.9525 C27.8958337,6.99750023 27.9758329,7.0466664 28.0675,7.1 C28.1591671,7.1533336 28.2699993,7.20249978 28.4,7.2475 C28.5300006,7.29250023 28.6916657,7.315 28.885,7.315 C29.0450008,7.315 29.1833327,7.29583353 29.3,7.2575 C29.4166672,7.21916648 29.5133329,7.166667 29.59,7.1 C29.666667,7.033333 29.7233331,6.95750043 29.76,6.8725 C29.7966668,6.78749958 29.815,6.69666715 29.815,6.6 C29.815,6.46999935 29.7783337,6.36333375 29.705,6.28 C29.6316663,6.19666625 29.5341673,6.1250003 29.4125,6.065 C29.2908327,6.0049997 29.1525008,5.9516669 28.9975,5.905 C28.8424992,5.8583331 28.6850008,5.8083336 28.525,5.755 C28.3649992,5.7016664 28.2075008,5.64000035 28.0525,5.57 C27.8974992,5.49999965 27.7591673,5.41083388 27.6375,5.3025 C27.5158327,5.19416613 27.4183337,5.06250078 27.345,4.9075 C27.2716663,4.75249923 27.235,4.56333445 27.235,4.34 C27.235,4.13666565 27.2758329,3.94333425 27.3575,3.76 C27.4391671,3.57666575 27.5591659,3.4150007 27.7175,3.275 C27.8758341,3.1349993 28.0708322,3.02416708 28.3025,2.9425 C28.5341678,2.86083293 28.8016651,2.82 29.105,2.82 C29.448335,2.82 29.7599986,2.87499945 30.04,2.985 C30.3200014,3.09500055 30.554999,3.24499905 30.745,3.435 L30.505,3.825 Z M33.86,8.08 C33.4366645,8.08 33.1108345,7.96083453 32.8825,7.7225 C32.6541655,7.48416548 32.54,7.1483355 32.54,6.715 L32.54,3.745 L31.98,3.745 C31.9199997,3.745 31.8683335,3.72583353 31.825,3.6875 C31.7816664,3.64916648 31.76,3.59166705 31.76,3.515 L31.76,3.08 L32.585,2.96 L32.82,1.485 C32.8366667,1.42833305 32.8649998,1.38250018 32.905,1.3475 C32.9450002,1.31249983 32.998333,1.295 33.065,1.295 L33.615,1.295 L33.615,2.97 L35.03,2.97 L35.03,3.745 L33.615,3.745 L33.615,6.64 C33.615,6.82333425 33.6599995,6.96333285 33.75,7.06 C33.8400004,7.15666715 33.9599992,7.205 34.11,7.205 C34.1933337,7.205 34.2649997,7.19416678 34.325,7.1725 C34.3850003,7.15083323 34.4366664,7.12750013 34.48,7.1025 C34.5233335,7.07749988 34.5608332,7.05416678 34.5925,7.0325 C34.6241668,7.01083323 34.6549998,7 34.685,7 C34.7450003,7 34.7933331,7.033333 34.83,7.1 L35.15,7.625 C34.9833325,7.7716674 34.7866678,7.88416628 34.56,7.9625 C34.3333322,8.04083373 34.1000012,8.08 33.86,8.08 Z M37.285,3.575 C37.3950005,3.4616661 37.5091661,3.35916713 37.6275,3.2675 C37.7458339,3.17583288 37.871666,3.096667 38.005,3.03 C38.138334,2.963333 38.2799992,2.91166685 38.43,2.875 C38.5800007,2.83833315 38.7433324,2.82 38.92,2.82 C39.2000014,2.82 39.4458323,2.8666662 39.6575,2.96 C39.8691677,3.0533338 40.0474993,3.18499915 40.1925,3.355 C40.3375007,3.52500085 40.4466663,3.72916548 40.52,3.9675 C40.5933337,4.20583453 40.63,4.4683319 40.63,4.755 L40.63,8 L39.56,8 L39.56,4.755 C39.56,4.41166495 39.4808341,4.14500095 39.3225,3.955 C39.1641659,3.76499905 38.9233349,3.67 38.6,3.67 C38.3599988,3.67 38.137501,3.72499945 37.9325,3.835 C37.727499,3.94500055 37.5350009,4.09499905 37.355,4.285 L37.355,8 L36.28,8 L36.28,2.9 L36.93,2.9 C37.0766674,2.9 37.1699998,2.96833265 37.21,3.105 L37.285,3.575 Z M45.635,4.875 C45.635,4.6949991 45.6091669,4.52750078 45.5575,4.3725 C45.5058331,4.21749923 45.4300005,4.08250058 45.33,3.9675 C45.2299995,3.85249943 45.1058341,3.76250033 44.9575,3.6975 C44.8091659,3.63249968 44.6383343,3.6 44.445,3.6 C44.054998,3.6 43.7483344,3.71166555 43.525,3.935 C43.3016655,4.15833445 43.1600003,4.47166465 43.1,4.875 L45.635,4.875 Z M43.07,5.535 C43.0833334,5.82500145 43.1283329,6.07583228 43.205,6.2875 C43.281667,6.49916773 43.384166,6.6749993 43.5125,6.815 C43.640834,6.9550007 43.7941658,7.05916633 43.9725,7.1275 C44.1508342,7.19583368 44.3499989,7.23 44.57,7.23 C44.780001,7.23 44.9616659,7.20583358 45.115,7.1575 C45.2683341,7.10916643 45.4016661,7.05583363 45.515,6.9975 C45.6283339,6.93916638 45.7249996,6.88583358 45.805,6.8375 C45.8850004,6.78916643 45.958333,6.765 46.025,6.765 C46.1116671,6.765 46.1783331,6.798333 46.225,6.865 L46.53,7.26 C46.4033327,7.41000075 46.2600008,7.53666615 46.1,7.64 C45.9399992,7.74333385 45.7700009,7.82749968 45.59,7.8925 C45.4099991,7.95750033 45.2250009,8.00416653 45.035,8.0325 C44.844999,8.06083348 44.6600009,8.075 44.48,8.075 C44.1266649,8.075 43.7991682,8.01583393 43.4975,7.8975 C43.1958318,7.77916608 42.9341678,7.60500115 42.7125,7.375 C42.4908322,7.14499885 42.3175006,6.8600017 42.1925,6.52 C42.0674994,6.1799983 42.005,5.78833555 42.005,5.345 C42.005,4.9916649 42.0608328,4.6616682 42.1725,4.355 C42.2841672,4.0483318 42.4441656,3.7816678 42.6525,3.555 C42.8608344,3.3283322 43.1141652,3.14916733 43.4125,3.0175 C43.7108348,2.88583268 44.0483314,2.82 44.425,2.82 C44.7383349,2.82 45.028332,2.87083283 45.295,2.9725 C45.561668,3.07416718 45.7916657,3.22333235 45.985,3.42 C46.1783343,3.61666765 46.3291661,3.85749858 46.4375,4.1425 C46.5458339,4.42750143 46.6,4.75166485 46.6,5.115 C46.6,5.2816675 46.5816668,5.39333305 46.545,5.45 C46.5083331,5.50666695 46.4416671,5.535 46.345,5.535 L43.07,5.535 Z M49.635,8.08 C49.2116646,8.08 48.8858345,7.96083453 48.6575,7.7225 C48.4291655,7.48416548 48.315,7.1483355 48.315,6.715 L48.315,3.745 L47.755,3.745 C47.6949997,3.745 47.6433336,3.72583353 47.6,3.6875 C47.5566664,3.64916648 47.535,3.59166705 47.535,3.515 L47.535,3.08 L48.36,2.96 L48.595,1.485 C48.6116668,1.42833305 48.6399998,1.38250018 48.68,1.3475 C48.7200002,1.31249983 48.773333,1.295 48.84,1.295 L49.39,1.295 L49.39,2.97 L50.805,2.97 L50.805,3.745 L49.39,3.745 L49.39,6.64 C49.39,6.82333425 49.4349996,6.96333285 49.525,7.06 C49.6150004,7.15666715 49.7349993,7.205 49.885,7.205 C49.9683337,7.205 50.0399997,7.19416678 50.1,7.1725 C50.1600003,7.15083323 50.2116665,7.12750013 50.255,7.1025 C50.2983336,7.07749988 50.3358332,7.05416678 50.3675,7.0325 C50.3991668,7.01083323 50.4299999,7 50.46,7 C50.5200003,7 50.5683332,7.033333 50.605,7.1 L50.925,7.625 C50.7583325,7.7716674 50.5616678,7.88416628 50.335,7.9625 C50.1083322,8.04083373 49.8750012,8.08 49.635,8.08 Z" id="Testnet-Copy" fill="#FFCC00"></path>
        </g>
    </g>
</svg>