<?xml version="1.0" encoding="UTF-8" standalone="no"?>
<svg
   xmlns:dc="http://purl.org/dc/elements/1.1/"
   xmlns:cc="http://creativecommons.org/ns#"
   xmlns:rdf="http://www.w3.org/1999/02/22-rdf-syntax-ns#"
   xmlns:svg="http://www.w3.org/2000/svg"
   xmlns="http://www.w3.org/2000/svg"
   xmlns:sodipodi="http://sodipodi.sourceforge.net/DTD/sodipodi-0.dtd"
   xmlns:inkscape="http://www.inkscape.org/namespaces/inkscape"
   width="35px"
   height="24px"
   viewBox="0 0 35 24"
   version="1.1"
   id="svg3820"
   sodipodi:docname="hx-logo-testnet.svg"
   inkscape:version="0.92.2 (5c3e80d, 2017-08-06)">
  <metadata
     id="metadata3824">
    <rdf:RDF>
      <cc:Work
         rdf:about="">
        <dc:format>image/svg+xml</dc:format>
        <dc:type
           rdf:resource="http://purl.org/dc/dcmitype/StillImage" />
      </cc:Work>
    </rdf:RDF>
  </metadata>
  <sodipodi:namedview
     pagecolor="#ffffff"
     bordercolor="#666666"
     borderopacity="1"
     objecttolerance="10"
     gridtolerance="10"
     guidetolerance="10"
     inkscape:pageopacity="0"
     inkscape:pageshadow="2"
     inkscape:window-width="1337"
     inkscape:window-height="745"
     id="namedview3822"
     showgrid="false"
     inkscape:zoom="11.313708"
     inkscape:cx="28.284256"
     inkscape:cy="18.223272"
     inkscape:window-x="0"
     inkscape:window-y="23"
     inkscape:window-maximized="0"
     inkscape:current-layer="Revised-Nav-Sizes" />
  <!-- Generator: Sketch 48.1 (47250) - http://www.bohemiancoding.com/sketch -->
  <title
     id="title3809">Logo</title>
  <desc
     id="desc3811">Created with Sketch.</desc>
  <defs
     id="defs3813" />
  <g
     id="Revised-Nav-Sizes"
     transform="translate(-24,-21)"
     style="fill:none;fill-rule:evenodd;stroke:none;stroke-width:1">
    <g
       id="Logo"
       transform="translate(24,21)"
       style="fill:#efeff4">
      <path
         d="M 0,23.474114 -1.5406705e-7,0.36000003 C -1.5406705e-7,0.1611775 0.16117735,0 0.35999987,0 c 5e-8,0 1.1e-7,0 1.6e-7,0 L 4.645011,6.1773764e-5 C 4.8437839,6.1859592e-5 5.0049277,0.16118671 5.0049511,0.35995958 c 2.361e-4,2.00165382 0.0025,3.00248072 0.00679,3.00248072 0.031439,1.2905476 0.062879,2.5810951 0.094318,3.8716427 v 0 c 0.00793,0.3255815 0.274144,0.5853876 0.5998221,0.5853876 1.4394585,0 2.878917,0 4.3183758,0 3.504873,0 5.452024,2.2218514 5.452024,5.9297464 v 9.724897 c 0,0.198823 -0.161178,0.36 -0.36,0.36 h -4.385864 c -0.198822,0 -0.36,-0.161177 -0.36,-0.36 v -8.613971 c 0,-1.774596 -0.8798241,-2.871094 -2.5673553,-2.871094 -1.7163778,0 -2.6827418,1.226347 -2.6827418,2.986515 v 8.49855 c 0,0.198823 -0.1611775,0.36 -0.3600001,0.36 H 0.36000003 C 0.1611775,23.834114 0,23.672937 0,23.474114 Z"
         id="h"
         inkscape:connector-curvature="0" />
      <path
         d="m 19.317789,11.698493 4.520604,3e-6 c 0.06877,0 0.134233,0.0295 0.179787,0.08101 l 2.430032,2.747991 c 0.0878,0.09929 0.239479,0.108608 0.338773,0.0208 0.007,-0.0062 0.01365,-0.0128 0.01989,-0.01977 L 29.267,11.778478 c 0.04553,-0.0509 0.110585,-0.07999 0.178873,-0.07999 h 4.581283 c 0.198823,0 0.36,0.161178 0.36,0.36 0,0.08779 -0.03208,0.172554 -0.0902,0.238347 l -4.957871,5.612108 c -3.54e-4,4e-4 -7.09e-4,8e-4 -0.0011,0.0012 l -5.319931,5.941482 c -0.04553,0.05085 -0.110549,0.07991 -0.1788,0.07991 l -4.774565,-4e-6 c -0.132548,0 -0.239999,-0.107452 -0.239999,-0.24 0,-0.0593 0.02195,-0.116496 0.06162,-0.160568 l 4.846711,-5.384252 c 0.121837,-0.135349 0.12341,-0.340366 0.0037,-0.477569 l -4.69016,-5.373932 c -0.130736,-0.149795 -0.115285,-0.37721 0.03451,-0.507946 0.06558,-0.05724 0.149675,-0.08877 0.236718,-0.08877 z"
         id="Rectangle-Copy-18"
         inkscape:connector-curvature="0" />
      <path
         d="m 34.886206,21.434321 -2.083968,2.367449 c -0.04556,0.05176 -0.11119,0.08142 -0.180148,0.08142 h -4.857694 c -0.132548,0 -0.24,-0.107451 -0.24,-0.24 0,-0.06076 0.02304,-0.119252 0.06448,-0.163686 l 4.617642,-4.951453 c 0.0904,-0.09694 0.242269,-0.102234 0.339205,-0.01183 0.0051,0.0048 0.01006,0.0098 0.01476,0.01503 l 2.32402,2.584004 c 0.08142,0.09053 0.08215,0.227677 0.0017,0.319068 z"
         id="Rectangle-Copy-19"
         transform="matrix(-1,0,0,1,62.470454,0)"
         inkscape:connector-curvature="0" />
    </g>
    <text
       xml:space="preserve"
       style="font-style:normal;font-variant:normal;font-weight:normal;font-stretch:normal;font-size:40px;line-height:1.25;font-family:Roboto;-inkscape-font-specification:Roboto;letter-spacing:0px;word-spacing:0px;fill:#af0dbb;fill-opacity:1;stroke:none;"
       x="32.174938"
       y="27.575064"
       id="text3847"><tspan
         sodipodi:role="line"
         id="tspan3845"
         x="32.174938"
         y="27.575064"
         style="font-size:8px;line-height:0;fill:#af0dbb;fill-opacity:1;">Testnet</tspan></text>
  </g>
</svg>
