<?xml version="1.0" encoding="UTF-8"?>
<svg width="35px" height="24px" viewBox="0 0 35 24" version="1.1" xmlns="http://www.w3.org/2000/svg" xmlns:xlink="http://www.w3.org/1999/xlink">
    <!-- Generator: Sketch 48.1 (47250) - http://www.bohemiancoding.com/sketch -->
    <title>Logo</title>
    <desc>Created with Sketch.</desc>
    <defs></defs>
    <g id="Revised-Nav-Sizes" stroke="none" stroke-width="1" fill="none" fill-rule="evenodd" transform="translate(-24.000000, -21.000000)">
        <g id="Logo" transform="translate(24.000000, 21.000000)" fill="#EFEFF4">
            <path d="M1.37758782e-09,23.4741141 L-1.54067054e-07,0.360000025 C-1.54067054e-07,0.161177501 0.161177347,3.65231051e-17 0.359999871,0 C0.359999923,-9.5220308e-24 0.359999975,1.12021487e-14 0.360000027,3.35842465e-14 L4.64501104,6.17737636e-05 C4.84378392,6.18595919e-05 5.0049277,0.161186706 5.00495114,0.359959582 C5.0051872,2.36161342 5.00744965,3.36244034 5.0117385,3.36244034 C5.04317783,4.65298788 5.07461716,5.94353542 5.1060565,7.23408296 L5.1060565,7.23408296 C5.11398806,7.55966446 5.38020048,7.8194706 5.70587858,7.8194706 C7.14533706,7.8194706 8.58479555,7.8194706 10.024254,7.8194706 C13.5291265,7.8194706 15.4762779,10.041322 15.4762779,13.749217 L15.4762779,23.4741141 C15.4762779,23.6729366 15.3151004,23.8341141 15.1162778,23.8341141 L10.7304143,23.8341141 C10.5315918,23.8341141 10.3704143,23.6729366 10.3704143,23.4741141 L10.3704143,14.8601427 C10.3704143,13.0855471 9.49059033,11.989049 7.80305915,11.989049 C6.08668127,11.989049 5.12031726,13.2153955 5.12031726,14.9755636 L5.12031726,23.4741141 C5.12031726,23.6729366 4.95913976,23.8341141 4.76031724,23.8341141 L0.360000027,23.8341141 C0.161177503,23.8341141 1.37481139e-09,23.6729366 1.37138623e-09,23.4741141 Z" id="h"></path>
            <path d="M19.3177893,11.6984925 L23.8383927,11.6984961 C23.907161,11.6984962 23.9726256,11.7279954 24.0181804,11.7795108 L26.4482121,14.5275019 C26.5360173,14.626796 26.6876912,14.6361096 26.7869853,14.5483045 C26.7939941,14.5421067 26.8006344,14.5355043 26.8068723,14.5285313 L29.2669975,11.7784816 C29.3125271,11.7275864 29.3775817,11.6984962 29.4458698,11.6984962 L34.0271535,11.6984962 C34.225976,11.6984962 34.3871535,11.8596737 34.3871535,12.0584963 C34.3871535,12.1462857 34.3550747,12.2310496 34.2969517,12.2968425 L29.3390811,17.9089508 C29.3387273,17.9093513 29.3383721,17.9097506 29.3380157,17.9101487 L24.0180853,23.8516312 C23.9725579,23.9024778 23.9075355,23.9315359 23.8392851,23.9315359 L19.0647204,23.931532 C18.932172,23.9315319 18.8247205,23.8240801 18.8247206,23.6915318 C18.8247206,23.6322343 18.8466726,23.5750361 18.8863446,23.5309642 L23.7330561,18.1467121 C23.8548927,18.0113628 23.8564658,17.8063459 23.7367204,17.669143 L19.0465606,12.29521 C18.9158251,12.1454148 18.9312761,11.9179996 19.0810714,11.7872641 C19.1466507,11.7300291 19.2307462,11.6984924 19.3177893,11.6984925 Z" id="Rectangle-Copy-18"></path>
            <path d="M34.8862058,21.434321 L32.8022377,23.8017705 C32.7566744,23.8535318 32.6910479,23.8831935 32.6220896,23.8831935 L27.7643964,23.8831935 C27.6318481,23.8831935 27.5243964,23.7757419 27.5243964,23.6431935 C27.5243964,23.5824366 27.5474397,23.5239408 27.5888775,23.4795075 L32.206519,18.5280541 C32.2969203,18.4311176 32.4487875,18.4258198 32.5457239,18.5162211 C32.5508612,18.521012 32.5557856,18.5260261 32.5604829,18.531249 L34.8845026,21.1152529 C34.9659216,21.2057801 34.9666537,21.3429299 34.8862058,21.434321 Z" id="Rectangle-Copy-19" transform="translate(31.235227, 21.167466) scale(-1, 1) translate(-31.235227, -21.167466) "></path>
        </g>
    </g>
</svg>